<svg id="404" data-name="404" xmlns="http://www.w3.org/2000/svg" viewBox="0 0 2500 2000"><defs><style>.cls-1{fill:#f5f5f5;}.cls-2{fill:#fff;}.cls-11,.cls-12,.cls-3,.cls-5,.cls-9{fill:none;}.cls-11,.cls-3{stroke:#263238;}.cls-11,.cls-3,.cls-5,.cls-9{stroke-linecap:round;stroke-linejoin:round;}.cls-3,.cls-5,.cls-9{stroke-width:3.16px;}.cls-4{fill:#263238;}.cls-5{stroke:#fff;}.cls-6{fill:#39a4f2;}.cls-7{fill:#263238;}.cls-8{fill:#39a4f2;}.cls-9{stroke:#7239f2;}.cls-10{fill:#fff;}.cls-11{stroke-width:2.37px;}</style></defs><path class="cls-1" d="M275,1531.45H2143a11.06,11.06,0,0,0,8.53-4l130-158.22a11,11,0,0,0-6.6-17.86l-110.12-19.58a11,11,0,0,1-8.29-15L2338,868.83a11,11,0,0,0-13.8-14.57c-60.72,21-221.38,75.49-226.5,67.82-5.43-8.15,54.55-294.33,71.43-374.18a11,11,0,0,0-15-12.44L1859,658.18a11,11,0,0,1-8.76-.13L1413,461a11,11,0,0,0-12.12,2L1058.31,787.58a11,11,0,0,1-17.88-4.07L970.8,601.41a11,11,0,0,0-18.63-3.3L614.68,986.37a11,11,0,0,1-15.56,1.09L359.54,779.25a11,11,0,0,0-18.26,7.87l-20.51,498.26a11,11,0,0,1-15.12,9.79l-91.59-36.64a11,11,0,0,0-14.78,13l65,251.65A11,11,0,0,0,275,1531.45Z"/><path class="cls-2" d="M1585.18,650.83A472.64,472.64,0,0,0,1571,703.51c-3.12,15-6.29,31.35-1.62,46.39,7.39,23.79,39,38.83,62.15,40.94-13.39-46.71-28.79-93.62-45.25-139.34a2.75,2.75,0,0,0-1.3-1.8C1584.28,649.41,1584.77,650.19,1585.18,650.83Z"/><path class="cls-2" d="M1859.07,594.78c7.39-32.65,18-65.29,30.1-96.72,4.38-11.37,11.23-21.61,18.37-31.4,5.51-7.55,10.81-15.35,17.44-22,2.93-2.93,12.89-16.05,16.41-7.91,2.51,5.8-3,13.77-5.07,19-2.74,7-5.39,14.15-9.79,20.31,6.6-9.24,14.43-18.75,22.1-27.53,4.6-5.26,8.71-11.58,14.83-15.27,3.64-2.19,10.73-5.2,13.42-.4.78,1.38-.1,5.17,0,6.76.34,7.21.9,12.86-2.06,19.42a229.5,229.5,0,0,1-10.3,21.16c-4.11,7.07-9.11,18.73-15.14,24.17,16.27-14.65,30.45-33.7,48.24-46.38,5.21,6.83-6.63,18.72-10.17,23.95-6.06,8.94-12.71,17.49-18.55,26.59,3.7-2.67,15.9-14.85,17.92-6.8,1.33,5.28-6.55,16.14-9.39,20.18-8.76,12.45-21,22-32.94,31.22-6.34,4.88-12.71,9.76-19.5,14a189.4,189.4,0,0,1-22.8,11.84,394.52,394.52,0,0,1-43.59,16.56"/><path class="cls-3" d="M338.26,975.88c71,64.21,207.8,62,243.58,163.55,7.79,22.11,7.34,46.33-3.41,67.4-5.24,10.28-24.77,38.48-39.83,34.25-18.73-5.26,15.13-40.18,20.25-45.9a314.37,314.37,0,0,1,50.66-45.47c41.81-30.08,90.94-50.11,142-56.89"/><path class="cls-4" d="M1905.12,1558.78c-3-5.28-11.48-4-16.78-3.84a268.78,268.78,0,0,0-27.64,2.21c-78.69,10.27-148.91,51.09-217.32,85.69-27.21,13.75-54.06,27.6-81.71,40.2a13,13,0,0,0-7.92,10.66,20.88,20.88,0,0,0,1.84,17.61,9.32,9.32,0,0,0,.54,2.92c2.44,6.9,11.28,7,17.76,6.49,22.68-1.66,45.2-7.92,67.17-13.1q69-16.29,136.43-37.8c20.48-6.54,40.79-13.53,61-20.77-2.91,1,0,17.42,1.15,19.35,6.23,10.61,23.91,2.2,33.39-.1,8.79-2.13,19.14-3.7,27.3-7.47,6.8-3.15,5.07-11,5.13-16.85q.15-15.07.31-30.13l.3-30.13.15-14.55C1906.24,1565.88,1906.88,1561.83,1905.12,1558.78Zm-327.2,146.61a1.61,1.61,0,0,0-2.46-1.37l-.42.2a1.93,1.93,0,0,0-.62-1.81l.39-.25a1.57,1.57,0,0,0,1.22.43,1.86,1.86,0,0,0,2.42.8l2.72-1.23a1.88,1.88,0,0,0,1.49,0l.89-.36C1581.64,1702.94,1579.76,1704.13,1577.92,1705.39Zm39.88-22.74a1.62,1.62,0,0,0-2-1c-1.63.55-3.21,1.2-4.82,1.79,2-1.13,4-2.25,5.92-3.39l1.53-.62-.27.17a1.54,1.54,0,0,0,.33,2.82Zm13.26-21.39c-1.06.46-2.14.9-3.21,1.35a1.77,1.77,0,0,0-1.8-1.81c1-.52,2-1.07,2.93-1.6a1.86,1.86,0,0,0,1.86.2c.9-.39,1.78-.8,2.68-1.18a1.75,1.75,0,0,0,.51,1.46ZM1864.44,1568c-2.4,1.11-4.75,2.29-7.09,3.52-1.46.39-2.91.8-4.36,1.23a1.53,1.53,0,0,0-1.11-1.84Zm-4.65-7.5q-5.93,1.27-11.78,2.85c-2.1.17-4.2.33-6.3.52a1.35,1.35,0,0,0-.47-.3C1847.38,1562.34,1853.58,1561.36,1859.79,1560.51Zm-14.51,10.37a1.57,1.57,0,0,0,.48-2.83l.11,0c1.28,0,2.56,0,3.84-.07-.49.19-1,.36-1.47.55h0l-.41.15c-1.44.58-.9,2.29.28,2.78q-8.13,1.63-16,4Q1838.6,1573,1845.28,1570.88Zm-17.22-4.36c.81-.2,1.63-.35,2.44-.54a2.8,2.8,0,0,0-.06.28l-2.87.87a1.32,1.32,0,0,0-.34,0c-4.77,1.2-9.46,2.6-14.09,4.16l-10.81,3.12a1.53,1.53,0,0,0-1.18,1.42c-1.39.57-2.79,1.13-4.17,1.74a1.29,1.29,0,0,0-.62.6c-.63.24-1.27.46-1.9.71h0l-.4.16,0,0a1.6,1.6,0,0,0-2-1c-.72.24-1.43.52-2.15.76a1.4,1.4,0,0,0-.54-.59A395.67,395.67,0,0,1,1828.06,1566.52Zm-2,33.71-7,4.36c-2.93,1-5.85,1.92-8.77,2.89ZM1796.62,1623l-.18.1a1.46,1.46,0,0,0-.77,1.56l-35.29,12.77q14.73-6.29,29.69-12.06Zm-42.73-11.93c2.83-1.11,5.65-2.22,8.49-3.32-9.72,4.59-19.33,9.36-28.9,14.21a1.75,1.75,0,0,0-.42-.52A221.93,221.93,0,0,0,1753.89,1611.07Zm-52.54,10.48a1.48,1.48,0,0,0,.56-.61l2.79-1.6,2.73-1.09,2.34-.91a1.61,1.61,0,0,0,1.07.7l-5.74,2.45c-1.92.65-3.82,1.36-5.74,2Zm-17.1,4.1a1.47,1.47,0,0,0,.51.54c-5.61,2.69-11.28,5.27-17,7.8Q1676,1629.81,1684.25,1625.65Zm-5.22,24.77c6.62-2.85,13.31-5.56,20.12-8q-7,3.19-13.82,6.6l-6.47,2.61A1.6,1.6,0,0,0,1679,1650.42Zm.44,10.71,2-1,49.5-20.36q5.37-1.65,10.79-3.16-30.43,11.27-60.32,23.75Zm8.41,28.23c0-.08,0-.16,0-.24,2.27-.7,4.52-1.41,6.8-2.06a1.68,1.68,0,0,0,.89-.58l4.49-1.31a1.61,1.61,0,0,0,.52.67C1696.34,1686.94,1692.11,1688.15,1687.88,1689.36Zm30.79-13.78c-5.16,1.06-10.31,2.17-15.43,3.37,6.59-2.06,13.21-4.06,19.88-5.94a1.63,1.63,0,0,0,.87-.59h0a1.59,1.59,0,0,0,.59,1.38Zm1.47-8.44c-3.67,1.43-7.35,2.87-11,4.37l-4.73,1.87a1.49,1.49,0,0,0,.27-1.28l22.21-7.64Zm1.58-15.81a1.79,1.79,0,0,0-.86-.67l5.58-2.21,7.08-2.57C1729.59,1647.7,1725.63,1649.46,1721.72,1651.33Zm47.86-4.91-35.4,12.18c11.83-4.51,23.82-8.61,35.91-12.49Zm6.6,20.38a.29.29,0,0,0,0-.09q6-2.07,12-4a1.58,1.58,0,0,0,1.1-1l4.56-1.58,8.59-2.38,5.85-1.54Q1792.31,1661.63,1776.18,1666.8Zm28.58-38q-9.37,2.72-18.68,5.57,11.76-4.28,23.6-8.36Zm16-18.58c-1.73.74-3.45,1.5-5.15,2.31l-6.09,2.14q9.59-4.73,19.38-9.08l.37-.09c0,.06,0,.13.07.2Zm31.48,47.12-.19.07a50.33,50.33,0,0,0-1.37-12.73v0l1-.37a56.94,56.94,0,0,0,1.08,7.8C1852.74,1653.88,1852.5,1655.63,1852.28,1657.38Zm13.46-11.38a42.9,42.9,0,0,1-.79,5.59c-.18-.7-.42-1.39-.58-2.09a58.24,58.24,0,0,0,.48-5.88,1.35,1.35,0,0,0,.84-.57c0,.84,0,1.68.09,2.52C1865.76,1645.71,1865.75,1645.85,1865.74,1646Zm12.92-45.49c0-.11,0-.23-.05-.35.12-2.78.24-5.55.34-8.33a22.26,22.26,0,0,0-.11-3.26c.38-.17.75-.37,1.12-.56C1879.41,1592.17,1879,1596.34,1878.66,1600.51Zm-1.16-30.62c-11.06,2-21.57,5.6-31.93,9.63q-4.35,1.7-8.68,3.43a.78.78,0,0,1-.16,0l-6.18,2.09a1.79,1.79,0,0,0-.51-.59c1.16-.51,2.3-1,3.47-1.52q14.71-5,29.49-9.72a.91.91,0,0,0,.17-.09,1.79,1.79,0,0,0,.95-.13l10.77-4.56c3.64-1.36,7.34-2.57,11.11-3.58C1883.18,1566.56,1880.36,1568.25,1877.5,1569.89Zm13.87,9.63c0,.83-.11,1.65-.17,2.47a2.11,2.11,0,0,0-1.46.26,1.33,1.33,0,0,0-1.13-.65v0l1.2-5.81c.17-.23.38-.44.55-.67-.06.4-.14.8-.19,1.21a0,0,0,0,0,0,0h0c0,.14-.05.27-.06.42a1.32,1.32,0,0,0,1.33,1.48C1891.41,1578.66,1891.4,1579.09,1891.37,1579.52Zm10.19,64.74c.15-.87.27-1.74.34-2.62a17.87,17.87,0,0,0,.09-1.94c0-.23,0-.46,0-.69,0,0,0-.07,0-.11v-.06c0-.06,0-.1,0-.17a109.34,109.34,0,0,0-.34-11s0,0,0,0a1.83,1.83,0,0,0,.28-.52,1.37,1.37,0,0,0,.2-.13l-.12,11.8c0,2.07.1,4.27.17,6.48A1.32,1.32,0,0,0,1901.56,1644.26Zm1-51.19q-.06,5.37-.11,10.74c-.23-1.69-.56-3.36-.88-5a1.53,1.53,0,0,0,.39-.86c.34-3.45.53-6.91.65-10.36C1902.58,1589.4,1902.57,1591.23,1902.55,1593.07Zm-1-32a1.49,1.49,0,0,0-.67-.56,1.76,1.76,0,0,0-1.36-.78c-1.83-.17-3.65-.29-5.47-.38a1.57,1.57,0,0,0-2-1l-3.4.79a1.5,1.5,0,0,0-1.34-.68l-.42,0a1.67,1.67,0,0,0,.08-.3c2.15-.07,4.3-.19,6.45-.2,1.82,0,4.53-.32,6.21.4,2.67,1.15,3.11,3.57,3.18,5.92A13.35,13.35,0,0,0,1901.55,1561.09Z"/><path class="cls-2" d="M1677.66,1645.06a80.84,80.84,0,0,0-17-15,1.38,1.38,0,0,0-1.48,2.34,77.69,77.69,0,0,1,14.49,12.45c2.06,2.26,4.42,4.75,5.78,7.45,2.2,4.38-2.77,4.26-5.91,3.77-13.53-2.11-25.15-9.85-36.48-16.49a1.39,1.39,0,1,0-1.49,2.34c7.14,4.19,14.21,8.59,21.84,12a67,67,0,0,0,11.2,3.94c3.08.76,6.89,1.73,10.09,1.07,2.77-.57,4.57-2.63,4.22-5.28C1682.53,1650.39,1679.75,1647.53,1677.66,1645.06Z"/><path class="cls-2" d="M1709.89,1633.86A175.48,175.48,0,0,0,1690.6,1619c-1.53-1-3,1.33-1.48,2.35a172.83,172.83,0,0,1,16.21,12.28c2.28,2,5.29,4,6.89,6.51,1.08,1.66.84,3.51-1.48,3.88a17.73,17.73,0,0,1-5.34-.26c-6.86-1.08-13.39-4.17-19.52-7.06a169,169,0,0,1-17.64-9.68,1.39,1.39,0,0,0-1.49,2.34A167.42,167.42,0,0,0,1689,1641.1a90.31,90.31,0,0,0,11.47,4.31c3.44,1,7.73,1.87,11.32,1.17a4.61,4.61,0,0,0,4-5.31C1715.31,1638.16,1712.19,1635.9,1709.89,1633.86Z"/><path class="cls-4" d="M1790.33,1530.44c-2.69-5.46-11.18-4.77-16.48-5a270.12,270.12,0,0,0-27.73.25c-61.25,3.6-118.78,25.77-174.41,49.32-.57.25-1.14.47-1.7.73q-9.1,3.87-18.16,7.76c-1,.41-2,.86-3,1.3-1.45.6-2.9,1.23-4.36,1.83-.94.44-1.92.85-2.87,1.23q-9.24,4-18.38,7.8l-.41.19c-1,.41-2,.82-3,1.26-26.93,11.3-53.61,22.67-80.92,32.84a12.9,12.9,0,0,0-8.65,10.07,21.76,21.76,0,0,0-1.61,6.44,21.33,21.33,0,0,0,2.21,11.24,9.09,9.09,0,0,0,.31,3c1.93,7,10.77,7.73,17.24,7.73,22.77-.06,45.66-4.67,67.95-8.3q70-11.32,138.77-28c20.9-5.06,41.64-10.58,62.32-16.36-3,.82-1.23,17.37-.25,19.39,5.46,11,23.71,3.88,33.34,2.27,8.91-1.52,19.36-2.34,27.76-5.52,7-2.66,5.84-10.55,6.31-16.42l2.46-30c.82-10,1.61-20,2.44-30.06.41-4.83.78-9.66,1.19-14.49C1790.93,1537.61,1791.87,1533.63,1790.33,1530.44Zm-336.83,123a1.6,1.6,0,0,0-2.34-1.55,2,2,0,0,0-.44.16,1.86,1.86,0,0,0-.51-1.83c.16-.1.29-.16.42-.26a1.56,1.56,0,0,0,1.19.54,1.87,1.87,0,0,0,2.34,1l2.81-1a2,2,0,0,0,1.49.09,8.1,8.1,0,0,0,.91-.31C1457.38,1651.21,1455.42,1652.25,1453.5,1653.39Zm42.09-20.05-.7.19a1.59,1.59,0,0,0-1.92-1.14c-1.68.44-3.29.95-4.93,1.45,2-1,4.07-2,6.13-3,.53-.15,1-.34,1.57-.5a1,1,0,0,0-.28.16A1.51,1.51,0,0,0,1495.59,1633.34Zm14.08-20.21-3.32,1.14a1.78,1.78,0,0,0-1.67-2c1-.44,2-.92,3.06-1.36a1.84,1.84,0,0,0,1.83.32c.92-.32,1.83-.67,2.75-1a1.84,1.84,0,0,0,.41,1.48C1511.72,1612.25,1510.68,1612.69,1509.67,1613.13Zm239.42-76.38c-2.46,1-4.89,2-7.32,3-1.49.32-3,.6-4.45.92a1.53,1.53,0,0,0-1-1.9C1740.6,1538.11,1744.83,1537.42,1749.09,1536.75Zm-4.1-7.8c-4,.57-8,1.24-12,2-2.08,0-4.2,0-6.31.07a1.72,1.72,0,0,0-.45-.32C1732.48,1529.9,1738.74,1529.37,1745,1529Zm-15.22,9.32a1.59,1.59,0,0,0,.69-2.81h.1c1.29.06,2.56.16,3.85.19l-1.52.47h0a2.71,2.71,0,0,0-.44.13c-1.45.47-1,2.21.1,2.78-5.5.69-10.9,1.67-16.23,2.87C1720.74,1540.57,1725.22,1539.34,1729.77,1538.27Zm-94,33.56,8.72-2.71c-10,3.88-20,8-29.84,12.12a2.2,2.2,0,0,0-.38-.54A216.09,216.09,0,0,0,1635.74,1571.83Zm35.08,16.86c2.24-.66,4.45-1.29,6.69-1.92l-.18.09a1.46,1.46,0,0,0-.86,1.52c-12.06,3.41-24.09,6.78-36.12,10.19Q1655.46,1593.36,1670.82,1588.69ZM1561,1605.93l-2.81.92c-.07,0-.13,0-.19.06a.68.68,0,0,0,.09-.22,1.43,1.43,0,0,0,.16-1l2.24-.76c4.83-1.67,9.73-3.25,14.62-4.73,1.27-.38,2.5-.76,3.76-1.11-1.11.41-2.24.86-3.35,1.3-3.66,1.39-7.29,2.84-10.89,4.32C1563.47,1605.14,1562.24,1605.52,1561,1605.93Zm21.56-27.4a1.38,1.38,0,0,0,.6-.54l2.91-1.42,2.78-.89c.82-.25,1.61-.5,2.4-.72a1.53,1.53,0,0,0,1,.76c-2,.66-3.95,1.35-5.91,2s-3.91,1.1-5.87,1.64C1581.21,1579.09,1581.91,1578.84,1582.6,1578.53ZM1552,1587c1-.44,2-.89,3.06-1.3,3.41-1.45,6.82-2.87,10.23-4.29a1.4,1.4,0,0,0,.44.6c-3.41,1.36-6.85,2.65-10.32,4-1.08.37-2.15.78-3.22,1.16-1.3.51-2.62,1-4,1.46C1549.48,1588,1550.71,1587.52,1552,1587Zm6,29.46c.7-.26,1.39-.54,2.09-.83l50.83-16.76c3.66-.85,7.3-1.64,11-2.4q-31.17,9.09-61.85,19.42Zm55-11.34c-4,1.52-8.12,3-12.16,4.58a1.68,1.68,0,0,0-.82-.73l5.75-1.8Zm-48.63,40.1c0-.06.07-.16.07-.22,2.3-.54,4.61-1.11,6.91-1.58a1.8,1.8,0,0,0,1-.51c1.51-.34,3-.66,4.54-1a1.67,1.67,0,0,0,.48.73C1572.94,1643.41,1568.65,1644.33,1564.32,1645.21Zm31.7-11.56c-5.21.7-10.45,1.46-15.63,2.28q10.09-2.37,20.24-4.52a1.59,1.59,0,0,0,.92-.5v.19a1.83,1.83,0,0,0,.5,1.23Zm2.09-8.3c-3.79,1.17-7.55,2.34-11.31,3.57-1.61.5-3.22,1-4.83,1.54a1.43,1.43,0,0,0,.35-1.26c7.58-2,15.15-4,22.7-6Zm50.77-17.15-36.19,9.63c12.13-3.66,24.38-6.88,36.72-9.88C1649.22,1608,1649.07,1608.11,1648.88,1608.2ZM1654,1629a.11.11,0,0,1,0-.09c4.08-1.08,8.15-2.12,12.29-3.1a1.67,1.67,0,0,0,1.17-.94c1.54-.45,3.09-.86,4.64-1.27,2.93-.6,5.84-1.17,8.74-1.77,2-.37,4-.75,5.94-1.1C1675.94,1623.58,1665,1626.36,1654,1629Zm31.2-35.83q-9.53,2-19,4.23,12.08-3.42,24.15-6.67C1688.63,1591.57,1686.92,1592.39,1685.22,1593.18Zm17.33-17.4c-1.77.63-3.53,1.26-5.3,2-2.09.56-4.17,1.1-6.22,1.7q9.9-4,20-7.67a2,2,0,0,1,.41-.06c0,.06,0,.12,0,.18Zm-10.26-3.51c5.43-2,10.83-4.07,16.26-6.09-2.43,1.26-4.86,2.56-7.32,3.85C1698.26,1570.76,1695.26,1571.52,1692.29,1572.27Zm19.73-39c-4.83.85-9.59,1.92-14.33,3.16-3.66.75-7.33,1.54-11,2.33a1.49,1.49,0,0,0-1.26,1.33c-1.42.47-2.88.91-4.3,1.45a1.32,1.32,0,0,0-.66.54l-1.93.57a0,0,0,0,0,0,0,2.4,2.4,0,0,0-.44.12h0a1.63,1.63,0,0,0-1.93-1.13c-.72.19-1.45.41-2.21.6a1.24,1.24,0,0,0-.47-.63,396.13,396.13,0,0,1,39.5-8.94c.82-.13,1.64-.22,2.46-.38,0,.1,0,.19-.06.29l-2.94.66A1.36,1.36,0,0,0,1712,1533.25Zm18.57,91.78a1.46,1.46,0,0,1-.19.07,52.7,52.7,0,0,0-.44-12.79v0c.35-.1.69-.19,1-.32a54.06,54.06,0,0,0,.54,7.86C1731.32,1621.59,1730.94,1623.3,1730.59,1625Zm14.3-10.83c0,.16,0,.29-.06.45a38.66,38.66,0,0,1-1.2,5.52c-.13-.72-.32-1.42-.41-2.15.38-1.92.69-3.85.88-5.81a1.47,1.47,0,0,0,.89-.5C1745,1612.53,1744.89,1613.38,1744.89,1614.2Zm16.07-44a1.38,1.38,0,0,1,0-.35c.32-2.78.63-5.52,1-8.27a29.68,29.68,0,0,0,.13-3.28c.37-.13.75-.32,1.13-.48Q1761.86,1564,1761,1570.19Zm1-30.63c-11.17,1.23-21.91,4-32.52,7.33-3,.95-5.93,1.86-8.9,2.81h-.16c-2.11.57-4.2,1.1-6.31,1.64a1.85,1.85,0,0,0-.48-.6c1.2-.44,2.37-.88,3.57-1.29q15-3.89,30.12-7.58c.07,0,.1-.06.16-.06a2.36,2.36,0,0,0,1-.07l11.08-3.79c3.73-1.1,7.51-2,11.33-2.78C1767.88,1536.66,1764.94,1538.14,1762,1539.56Zm13.17,10.61c-.13.82-.25,1.61-.35,2.43a2.25,2.25,0,0,0-1.48.16,1.38,1.38,0,0,0-1.07-.73v0q.79-2.84,1.61-5.71c.19-.22.41-.41.6-.63-.1.41-.23.79-.29,1.2v0c0,.12-.06.28-.09.41a1.3,1.3,0,0,0,1.23,1.58C1775.23,1549.32,1775.2,1549.73,1775.14,1550.17Zm6.44,59.87c-.16,2-.19,4.26-.28,6.47a1.29,1.29,0,0,0-.6-1c.19-.86.38-1.71.5-2.59a12.68,12.68,0,0,0,.22-1.93c0-.22.07-.47.1-.69a.86.86,0,0,1,0-.13v0c0-.06.06-.1.06-.19.35-3.66.44-7.33.44-11a0,0,0,0,1,0,0,2.26,2.26,0,0,0,.32-.5,2.14,2.14,0,0,1,.22-.1C1782.24,1602.21,1781.93,1606.12,1781.58,1610Zm3.73-45.56c-.29,3.56-.57,7.13-.86,10.7-.12-1.71-.34-3.38-.53-5.08a1.35,1.35,0,0,0,.44-.83c.6-3.41,1-6.85,1.39-10.29C1785.62,1560.81,1785.47,1562.64,1785.31,1564.48Zm2.3-28.67a13.16,13.16,0,0,0-1-3.32,1.72,1.72,0,0,0-.63-.6,1.8,1.8,0,0,0-1.29-.88c-1.84-.29-3.64-.54-5.44-.76a1.57,1.57,0,0,0-1.92-1.14l-3.44.54a1.59,1.59,0,0,0-1.3-.76c-.16,0-.28,0-.41,0l.1-.28c2.14.09,4.29.12,6.44.25,1.83.12,4.54,0,6.15.85C1787.45,1531,1787.74,1533.47,1787.61,1535.81Z"/><path class="cls-2" d="M1562,1609.22c.16,2.68-1.76,4.57-4.57,5-3.26.44-7-.79-10-1.77a66.75,66.75,0,0,1-10.89-4.73,170.87,170.87,0,0,1-16.71-10.58c1-.44,2-.85,3-1.26,9.07,6.31,18.54,12.6,29.59,15.15,3.12.7,8,1.17,6.16-3.34-.1-.26-.23-.54-.35-.79,0-.07-.07-.1-.1-.16a43.18,43.18,0,0,0-4.76-6.92,77,77,0,0,0-11.75-11.93c1-.38,1.93-.79,2.87-1.23a78.16,78.16,0,0,1,12.79,13.7,43.28,43.28,0,0,1,3.25,4.67c.19.32.35.64.51,1A9,9,0,0,1,1562,1609.22Z"/><path class="cls-2" d="M1595.58,1599.24a4.63,4.63,0,0,1-4.36,5c-3.63.44-7.83-.76-11.21-2-1.51-.54-3-1.14-4.45-1.83a1,1,0,0,1-.41-.19c-2.11-1-4.2-2-6.25-3.1a159.62,159.62,0,0,1-16.73-10,.84.84,0,0,0-.19-.12c-1.08-.73-2.12-1.46-3.13-2.21,1-.44,2-.89,3-1.3,1,.76,2.12,1.52,3.19,2.21a2.63,2.63,0,0,0,.35.26q5.2,3.49,10.7,6.56c5.9,3.32,12.22,6.89,19,8.43a19,19,0,0,0,5.3.67c2.34-.23,2.72-2.06,1.77-3.79-1.45-2.59-4.3-4.87-6.44-7a178,178,0,0,0-15.28-13.42,1.31,1.31,0,0,1-.41-1.7,1.34,1.34,0,0,1,1.7-.73l.35.22a177.69,177.69,0,0,1,18.18,16.23C1592.39,1593.62,1595.33,1596.11,1595.58,1599.24Z"/><path class="cls-2" d="M1730.49,1632.35c-3,1.21-6.18.58-9.07-.52-3.55-1.41-7-3.23-10.35-4.9-3.21-1.63-6.39-3.27-9.56-5a1,1,0,0,1-.29-.16q-4-2.08-7.82-4.36l2.89-1.51c2.48,1.42,5,2.78,7.47,4.11.41.21.82.43,1.21.65,1.27.68,2.54,1.32,3.81,2,2.82,1.48,5.72,2.9,8.6,4.29s6,3.34,9.36,3.39c3.57.09,5.69-2.3,4.67-5.48-.85-2.74-3.21-4.95-5.32-6.95a116.15,116.15,0,0,0-12.85-10.71c.91-.45,1.85-.94,2.79-1.39a93.06,93.06,0,0,1,14.87,13C1734.42,1622.68,1737.18,1629.69,1730.49,1632.35Z"/><path class="cls-2" d="M1711.8,1646.57c-3.6.72-7.89-.19-11.33-1.17a40.94,40.94,0,0,1-4.58-1.52s0,0,0,0a1.86,1.86,0,0,1-.38-.12c-2.18-.82-4.36-1.74-6.47-2.66a162.29,162.29,0,0,1-17.4-8.84l-.19-.09c-1.1-.66-2.21-1.33-3.28-2,.94-.51,1.92-1,2.87-1.48,1.1.66,2.21,1.32,3.35,2,.12.07.25.16.38.22q5.44,3.09,11.14,5.78c6.13,2.91,12.66,6,19.51,7.08a18.11,18.11,0,0,0,5.34.25c2.34-.35,2.56-2.21,1.48-3.85-1.61-2.5-4.61-4.58-6.88-6.54a168,168,0,0,0-16.23-12.28,1.32,1.32,0,0,1-.54-1.64v0a1.32,1.32,0,0,1,1.68-.82,3.52,3.52,0,0,1,.35.16,179.43,179.43,0,0,1,19.32,14.87c2.27,2.05,5.4,4.33,5.87,7.42A4.61,4.61,0,0,1,1711.8,1646.57Z"/><path class="cls-5" d="M1669.21,1629c2.07-.78,60.69-32.81,87.89-47.26"/><path class="cls-6" d="M1646.22,770.52V1537a6.67,6.67,0,0,0,3.76,6,78.39,78.39,0,0,0,72-2c-2.11,1.14.72,20.62,1.45,23.34,2.61,9.76,7.34,14.63,16.65,18.33,15.44,6.12,34.57,7.13,51,8.55,43.82,3.79,92.1.82,130.29-23.23a6.58,6.58,0,0,0,3-4.91c5.7-55.23,83.08-815,34.4-909.31C1908.29,555.82,1646.22,770.52,1646.22,770.52Z"/><path class="cls-7" d="M1959.91,635.48c-6.41-13.77-12.91-27.47-19.39-41.2a117.86,117.86,0,0,0-5.36-10.58c-3.07-5.17-6.4-10.46-7.57-16.37a1.29,1.29,0,0,0-.48-.92c-.42-.24-.94.07-1.33.36A168.82,168.82,0,0,1,1895,584.83c-8.77,4-18.56,6.59-27.77,9.54-.86.27-9.42,2.24-9.5,2.5.3-.86,31.57-101,31.57-101s-3.15-243.12-34.73-265.22-88.41-41.05-243.12,9.47c-5.36,1.77-10.38,3.38-15,4.93-20.14,10.1-62.64,39.05-101.79,115.05L1441,464.26l-28.42,37.88s-63.15,195.76-63.15,246.28,44.2,72.62,123.14,15.79,101-75.78,101-75.78l12.63-37.89s40.17,128.06,48.88,158a4.89,4.89,0,0,0,6.82,3c9.13-4.42,27.28-11.9,29.08-12.79,57.75-28.32,115-57.46,172.42-86.51q39.75-20.13,79.44-40.32,12.6-6.39,25.2-12.82C1961.8,652.18,1967.08,650.89,1959.91,635.48Zm-475.53,3.79c-12.58,1-8.65-12.51-5.65-19.77,2-4.69,35.43-69,37.3-70,2.61-1.36,5.46,3.46,7.18,5.13,6.36,6.2,11.63,13.39,17.35,20.15a175.53,175.53,0,0,1,12.12,16.2c2.14,3.24,10,12.4,8.51,16.37S1493.49,638.52,1484.38,639.27Z"/><path class="cls-8" d="M1226.45,1295.09c1.14-6.71,2.32-13.42,3.38-20.18.14-.92,1.54-5.21.92-6-.9-1.16-5.47.38-6.79.63-5.35,1-10.67,2.17-16.08,2.83q-15.83,1.94-31.7,3.35-31.76,2.82-63.64,3.53-33,.74-65.89-.78c-21.23-1-42.43-3.38-63.54-4.81a286.09,286.09,0,0,1-4.46,35.37c-7.66,40.54-22.29,79.29-34.66,118.52-8.4,26.65-17.46,54.46-37.32,74.12a23.52,23.52,0,0,1-7.48,5.47c-12.26,4.88-20.47-5.14-24.9-15.4-8.94-20.72-10.39-45-11.48-67.31-1.81-37-1.59-73.76.28-110.77.59-11.74.78-23.34,1.62-35a77.88,77.88,0,0,1-6.67,5.47c-3.71,2.77-7.31,5.67-10.84,8.67-7.14,6.08-13.94,12.56-20.54,19.22-13.33,13.43-25.88,27.61-39.1,41.14-5.7,5.83-11.53,11.54-17.6,17-32.43,29-62.08,75.55-107.89,84.74-21.25,4.26-39-7-45.4-24.85a45.4,45.4,0,0,1-1.8-23.43c3-17.39,12.15-33,21.12-48.24,36.69-62,80-121.09,131.19-172-29.3-25.25-30.56-67.88-17-101.38,11.81-29,33.54-54.4,61.86-67.66,35.49-16.61,107.92-17.08,107.66,36-.09,16-16.32,9.25-24.88,2.53-12.44-9.76-30.21-11-45.08-5.65s-27,16.63-36.12,29.55c-8.94,12.63-15.48,27.88-13.9,43.25a83.63,83.63,0,0,0,10.9,32.56c.41.66.91,1.39,1.67,1.51a2.91,2.91,0,0,0,1.86-.63c20.68-13.1,41.74-23.36,64.16-33.18,18.72-8.24,37.48-16.48,56.52-24,71-28,145.24-36.88,221-43.57-16.61-21.5-29.17-48-34.7-74.64a300.14,300.14,0,0,1-91.06-10c-23.49-6.34-47.64-16.76-60.9-37.19-2.31-3.54-4.26-7.45-4.45-11.65-.32-6.32,3.53-12.32,8.68-16s11.46-5.43,17.71-6.54c25.23-4.51,51.53-.37,75.43,8.94s45.56,23.59,65.68,39.53c18.18-21.25,40.38-39.06,66.52-49.07a144.33,144.33,0,0,1,69.18-8.33c-2.67-.34,1-10.37,1.76-11.44,4.4-6.07,13.89-4.59,20.13-3.46a74.49,74.49,0,0,1,23.92,9.17,147.82,147.82,0,0,1,20.75,14.93c9.08,7.61,18.3,15.06,27.31,22.76,7.06,6,14,12.24,20.57,18.79,5.27,5.25,13.81,12.07,14.95,20,.75,5.21-2.13,9.56-6.21,12a15.44,15.44,0,0,1-7.08,2.25c-8.68.49-17.42-1.84-25.77-3.92a97.92,97.92,0,0,1-32.74-15.09l-.16-.1c7,9.57,11.27,21.88,14.37,33.22a128.7,128.7,0,0,1,3.87,48.86c-1.88,15.89-7.56,34.92-18.52,46.95,5.61,4.26,11.57,9.53,17.87,12.68a746.91,746.91,0,0,1,161.59,188.21c8.43,14,16.45,28.41,20.68,44.17,2.62,9.76,3.38,21.28-3.15,29-5.94,7-16.33,8.69-25.2,6.51s-16.58-7.58-24-13a895.65,895.65,0,0,1-130.15-116c-7.2,61-31,120-64.32,171.54-6.91,10.74-16.38,22.26-29.17,22.14-9.38-.07-17.68-6.86-22.07-15.13s-5.62-17.84-6.38-27.18a333.73,333.73,0,0,1,1.14-62.81C1223.05,1315.42,1224.71,1305.26,1226.45,1295.09Z"/><path class="cls-4" d="M1343.28,545c.19,1.08.41,2.15.6,3.25a266.19,266.19,0,0,0,29.55,2.4c.25-1,.48-2.08.7-3.12A268.36,268.36,0,0,1,1343.28,545Z"/><path class="cls-4" d="M1358.81,430.68c-.34,0-.69-.06-1-.06.41.66.79,1.33,1.2,2l-3.28-2.34c.53.92,1.1,1.8,1.64,2.69.5,0,1,.09,1.48.12C1360.33,433.18,1360.33,430.81,1358.81,430.68Zm-12-25.22c-.22-.07-.48-.1-.7-.16a1.37,1.37,0,0,0,0,.35c.07.72.16,1.45.25,2.14C1347.73,407.86,1348.24,405.8,1346.85,405.46Z"/><path class="cls-3" d="M1688.85,364.8l85.25-41.05s-34.73,312.58,82.09,274.69,135.77-97.87,129.45-101-44.2,44.2-44.2,44.2,66.3-78.93,56.83-82.09-63.15,63.15-63.15,63.15,53.68-69.47,41.05-85.25c0,0,3.16-12.63-9.47-6.32s-56.83,69.47-56.83,69.47,41-56.84,31.57-66.31-53.68,63.15-53.68,63.15"/><line class="cls-3" x1="1925.65" y1="510.04" x2="1976.17" y2="437.42"/><line class="cls-3" x1="1448.89" y1="661.59" x2="1470.99" y2="642.65"/><line class="cls-3" x1="1458.36" y1="671.06" x2="1474.15" y2="648.96"/><path class="cls-3" d="M1630.27,792.39s-29.83-4.5-55.09-29.76,9.48-110.51,9.48-110.51c-19-56.83-69.47-104.19-69.47-104.19"/><line class="cls-3" x1="1584.66" y1="743.68" x2="1625.24" y2="775.92"/><line class="cls-3" x1="1594.13" y1="724.74" x2="1615.28" y2="743.68"/><line class="cls-9" x1="1864.08" y1="833.67" x2="1974.81" y2="734.21"/><line class="cls-9" x1="1789.89" y1="1049.95" x2="1884.61" y2="955.23"/><line class="cls-9" x1="1829.35" y1="1174.67" x2="1901.97" y2="1098.89"/><line class="cls-9" x1="1769.36" y1="1443.04" x2="1920.92" y2="1288.33"/><line class="cls-9" x1="1858.02" y1="1528.29" x2="1911.44" y2="1480.93"/><line class="cls-9" x1="1740.95" y1="1566.18" x2="1791.46" y2="1525.13"/><line class="cls-9" x1="1704.64" y1="914.18" x2="1650.96" y2="961.54"/><line class="cls-9" x1="1704.64" y1="1056.26" x2="1742.52" y2="1018.38"/><line class="cls-9" x1="1650.96" y1="1182.56" x2="1688.85" y2="1138.36"/><line class="cls-9" x1="1701.48" y1="1236.23" x2="1739.37" y2="1192.03"/><line class="cls-9" x1="1657.28" y1="1343.59" x2="1698.32" y2="1296.22"/><line class="cls-3" x1="1756.73" y1="906.29" x2="1720.86" y2="1581.97"/><line class="cls-9" x1="522.2" y1="991.54" x2="717.96" y2="726.32"/><line class="cls-9" x1="490.62" y1="937.86" x2="632.71" y2="735.79"/><line class="cls-9" x1="1071.58" y1="603.18" x2="1144.2" y2="811.57"/><line class="cls-9" x1="1122.1" y1="603.18" x2="1175.78" y2="761.05"/><line class="cls-9" x1="2290.8" y1="1138.26" x2="2173.04" y2="1416.3"/><line class="cls-9" x1="2209.62" y1="1182.56" x2="2097.73" y2="1443.04"/><path class="cls-5" d="M1244.19,1116.72c37.47,5.24,82.7-12.46,94.17-51.42"/><path class="cls-5" d="M1014.22,1106.68a360.8,360.8,0,0,1,50.56-18.73"/><path class="cls-5" d="M1020.24,1127.86c15.88-8.36,33.12-14.23,49.65-21.56"/><path class="cls-5" d="M1070,1137.77q14.48-6.7,29.38-12.42c1.39-.54,2.79-1.06,4.19-1.59"/><path class="cls-5" d="M774.35,1182.33c9.82-8,21.23-14.89,32-21.53,12.15-7.46,24.49-14.64,37.12-21.25"/><path class="cls-5" d="M875.61,1274.32a524.14,524.14,0,0,1,115.5.65"/><path class="cls-5" d="M1238.92,1267.66a185.68,185.68,0,0,0,104-28.06"/><path class="cls-5" d="M1479.26,1345.39a217.47,217.47,0,0,1,10.35,31.15"/><path class="cls-5" d="M1495.67,1350.86q5.52,13.73,10.24,27.75"/><path class="cls-5" d="M1511.81,1342.79l9.22,27.38"/><path class="cls-5" d="M1233.75,1379.94a202.54,202.54,0,0,1-22.34,31.51"/><path class="cls-5" d="M1243.12,1399.66q-8.83,16.17-18.69,31.77"/><path class="cls-5" d="M1261.73,1408.43a160.78,160.78,0,0,1-14.22,24.06"/><path class="cls-5" d="M898.3,1479.7A168.3,168.3,0,0,1,916.79,1507"/><path class="cls-5" d="M911.7,1466.83a287.52,287.52,0,0,1,19.81,23.71"/><path class="cls-5" d="M923.59,1453.85a173.56,173.56,0,0,1,19.46,21.45"/><path class="cls-5" d="M660.72,1433.55l8.38,31.23"/><path class="cls-5" d="M673.41,1418.41q5.4,18.72,9.54,37.79"/><path class="cls-5" d="M690.81,1413.13q4.66,16.08,10.35,31.85"/><path class="cls-2" d="M1382.67,964.35c-.77,1.23-2.52,2-4.88,2.18-7.86.75-16.06-2-23.63-3.72a96.21,96.21,0,0,1-31-13.22c-17.7-21.28-39.22-48.53-40-49.58,1.55.49,51.27,17,86.52,47,4.35,3.69,9,7.66,12.18,12.47C1383.25,961.54,1383.41,963.17,1382.67,964.35Z"/><path class="cls-2" d="M1128.41,953.65s-3.15,6.31-3.15,12.63c0,0-171.25-29.43-148.4-50.52C1017.91,877.87,1128.41,953.65,1128.41,953.65Z"/><path class="cls-10" d="M1178.73,1029.54a8.44,8.44,0,0,0,3.62-1c5.5-2.76,11.09-5.32,16.61-8q5-2.46,10-5c4.28-2.13,8.55-4.28,12.77-6.52q3.81-2,7.67-3.94c2.78-1.4,3-1.22,2.49-4-.77-4.47-2.59-8.59-6.12-11.58a16.69,16.69,0,0,0-14.87-3.33,23.92,23.92,0,0,0-6.57,3.09c-12.41,7.92-20,21.38-27,34.3C1175.18,1027.43,1176.19,1029.56,1178.73,1029.54Z"/><path class="cls-4" d="M1233.11,1000.82c-.91-5.24-3.12-9.38-6.53-12.28a17.89,17.89,0,0,0-11.21-4.17,18.61,18.61,0,0,0-4.74.6,24.77,24.77,0,0,0-6.91,3.22c-13,8.3-20.65,22.35-27.44,34.73-1.77,3.25-1.42,5.15-.82,6.19a3.58,3.58,0,0,0,3.25,1.61h0a9.48,9.48,0,0,0,4.14-1.17c3.16-1.54,6.31-3.06,9.5-4.58,2.37-1.13,4.74-2.27,7.11-3.44,2.14-1,4.26-2.08,6.41-3.15l3.63-1.8c4.29-2.15,8.55-4.3,12.79-6.54,2.52-1.36,5.08-2.65,7.64-3.95l.66-.31C1233.18,1004.51,1233.65,1004,1233.11,1000.82Zm-2.18,2a5.36,5.36,0,0,1-1.38.79l-.64.32c-2.58,1.29-5.14,2.62-7.7,4-4.2,2.21-8.46,4.35-12.72,6.5-1.17.6-2.37,1.17-3.54,1.74-2.18,1.1-4.33,2.14-6.5,3.22-2.37,1.17-4.74,2.27-7.11,3.41-3.19,1.51-6.38,3-9.5,4.61a7.26,7.26,0,0,1-3.13.91c-.35,0-1-.06-1.2-.47s-.25-1.77.85-3.82c6.63-12.13,14.18-25.92,26.65-33.88a23.2,23.2,0,0,1,6.25-2.94l.38-.09a16.3,16.3,0,0,1,3.48-.41,15.35,15.35,0,0,1,9.91,3.6c3,2.52,4.93,6.19,5.75,10.89A6.66,6.66,0,0,1,1230.93,1002.87Z"/><path class="cls-4" d="M1230.62,1005.78l-.66.31c-2.56,1.3-5.12,2.59-7.64,3.95-4.24,2.24-8.5,4.39-12.79,6.54l-3.63,1.8a4.44,4.44,0,0,1-.6-1c-.13-.38-.26-.75-.35-1.13a5.47,5.47,0,0,1-.19-1.46c-.16-6.59.32-13.79,2.46-20.08a21.6,21.6,0,0,1,1.77-4.1,15.69,15.69,0,0,1,2.65-3.41,13.81,13.81,0,0,1,1.74-1.49,16.52,16.52,0,0,1,2-1.29,17.89,17.89,0,0,1,11.21,4.17c3.41,2.9,5.62,7,6.53,12.28C1233.65,1004,1233.18,1004.51,1230.62,1005.78Z"/><path class="cls-10" d="M1266.69,987.34a7.54,7.54,0,0,0,3.18-.92c4.84-2.44,9.76-4.71,14.61-7.11q4.43-2.17,8.84-4.4c3.76-1.89,7.51-3.79,11.22-5.77q3.36-1.78,6.75-3.49c2.45-1.24,2.63-1.08,2.2-3.57a16.69,16.69,0,0,0-5.39-10.25,14.58,14.58,0,0,0-13.08-3,21,21,0,0,0-5.78,2.73c-10.92,7-17.57,18.94-23.79,30.38C1263.56,985.46,1264.45,987.35,1266.69,987.34Z"/><path class="cls-4" d="M1314.53,961.9a17.86,17.86,0,0,0-5.75-10.87,15.7,15.7,0,0,0-9.86-3.7,16,16,0,0,0-4.17.54,21.41,21.41,0,0,0-6.08,2.85c-11.39,7.35-18.17,19.79-24.14,30.75-1.56,2.88-1.25,4.56-.72,5.48a3.12,3.12,0,0,0,2.86,1.43h0a8.36,8.36,0,0,0,3.64-1q4.15-2.05,8.36-4.06c2.08-1,4.16-2,6.25-3,1.88-.92,3.74-1.84,5.63-2.79l3.2-1.6c3.78-1.9,7.53-3.8,11.25-5.78,2.22-1.21,4.47-2.35,6.72-3.5l.58-.28C1314.58,965.17,1315,964.7,1314.53,961.9Zm-1.92,1.82a4.87,4.87,0,0,1-1.22.7l-.56.28c-2.28,1.14-4.53,2.32-6.77,3.52-3.7,2-7.45,3.86-11.2,5.76-1,.53-2.08,1-3.11,1.54-1.92,1-3.8,1.9-5.72,2.85-2.08,1-4.17,2-6.25,3-2.81,1.34-5.61,2.68-8.36,4.08a6.25,6.25,0,0,1-2.75.81c-.31,0-.86,0-1.06-.42s-.22-1.56.75-3.38c5.84-10.74,12.47-23,23.45-30a19.52,19.52,0,0,1,5.5-2.6l.33-.09a14.28,14.28,0,0,1,3-.36,13.49,13.49,0,0,1,8.73,3.19,15.72,15.72,0,0,1,5,9.65A6,6,0,0,1,1312.61,963.72Z"/><path class="cls-4" d="M1312.33,966.29l-.58.28c-2.25,1.15-4.5,2.29-6.72,3.5-3.72,2-7.47,3.88-11.25,5.78l-3.2,1.6a4.24,4.24,0,0,1-.52-.92c-.11-.34-.23-.68-.31-1a5,5,0,0,1-.17-1.29c-.14-5.84.28-12.22,2.17-17.78a19.19,19.19,0,0,1,1.56-3.64,13.62,13.62,0,0,1,2.33-3,11.36,11.36,0,0,1,1.53-1.31,14.66,14.66,0,0,1,1.75-1.15,15.7,15.7,0,0,1,9.86,3.7,17.86,17.86,0,0,1,5.75,10.87C1315,964.7,1314.58,965.17,1312.33,966.29Z"/><path class="cls-11" d="M1264.51,984.34c-1.44,3.53,2.4,4.89,5,5.78,12,4.14,24,8.22,35.79,12.89,1.75.69,1.82,3.7,1.59,5.57"/><path class="cls-4" d="M1302.13,1002a6.37,6.37,0,0,1,4.2,1c2,1.69,2.24,5.48.84,7.62-3.05,4.63-9.41,8.65-14.07,11.76a6.69,6.69,0,0,1-2.21,1.08,7.45,7.45,0,0,1-2.4,0,120.61,120.61,0,0,1-15.08-3.06c-2.65-.72-5.56-1.38-7.79-3.07a5.27,5.27,0,0,1-2.13-5.41c.76-2.66,3.88-3.66,6.21-4.52a103.09,103.09,0,0,1,11-2.88,82.23,82.23,0,0,1,17.4-2.26C1299.17,1002.18,1300.66,1002,1302.13,1002Z"/><path class="cls-3" d="M1250.18,1030.24a13.28,13.28,0,0,0,8.17,9.16,20.74,20.74,0,0,0,12.57.49,28.94,28.94,0,0,0,17.4-12.69,11.06,11.06,0,0,0,1.87-5,9.53,9.53,0,0,0,2.4,6.49,14.62,14.62,0,0,0,6,4.75,13,13,0,0,0,13.51-3.19,16.91,16.91,0,0,0,4.46-13.51"/><path class="cls-3" d="M973.23,1085.28a64.75,64.75,0,0,1,5-33.39c4.16-9.65,10.28-19.35,19.5-24.81,10.88-6.44,24.79-9.25,37.34-9.08,12.18.16,22.17,2.55,32.8,8.62a166.65,166.65,0,0,1,36.31,28c9.79,10,18.34,21.24,29,30.33,6.87,5.87,14.79,10.82,23.5,13.4,8.21,2.42,16.49,1.73,24.81.21,16.45-3,30.22-13.69,38.46-28.1,6.31-12.63,12.63-31.57,33.65-32.44a5.48,5.48,0,0,1,2.24-.06"/><path class="cls-3" d="M806.8,1093.22c86.08,5.33,168.31,55.94,233.11,109.86,30.55,25.42,55.57,54.52,59.52,95.6,1.67,17.43-6.74,57.75-32.46,41.63-20-12.55-31.09-41.73-39.78-62.47"/><path class="cls-3" d="M1158.05,1011.39a63.78,63.78,0,0,1,8.86,2.71"/><path class="cls-12" d="M1303.59,935.89a75.4,75.4,0,0,1-2.31,8.09"/><path class="cls-3" d="M1157.52,1020.21l9.39,2.2"/><path class="cls-3" d="M1315.66,1027.42c55.87,5.16,106.39,30.42,146,67.86"/><path class="cls-3" d="M1499.84,1106a107.24,107.24,0,0,0-25.77-11.66c-3.6-1.09-9.73-2.47-12.49,1.21-2.38,3.18-.17,10.3.89,13.68a79,79,0,0,0,11.74,23.33c2.1,2.83,6.93,2.28,10.34,1.39a24.34,24.34,0,0,0,9.19-5c4.35-3.6,8-8.46,8.69-14.07C1502.83,1111.54,1502.67,1107.75,1499.84,1106Z"/><path class="cls-3" d="M1477.54,1134.5c-4.84-3-.55-10.49,1.87-13.59a42.51,42.51,0,0,1,11.77-10c3.13-1.85,12.21-6.36,11.38,1"/><line class="cls-3" x1="1482.04" y1="1127.3" x2="1500.99" y2="1149.41"/><line class="cls-3" x1="1491.51" y1="1117.83" x2="1510.46" y2="1139.93"/><path class="cls-2" d="M1490.51,499.64c-2.4,8-5.4,7.8-11.37,7.33a36.94,36.94,0,0,0-10.42.31l-1.23.25c-1.1.23-2,.38-2.68.6A37.3,37.3,0,0,0,1457,479a1.58,1.58,0,0,0-2.5,1.93c7,9,9.1,18.75,6.51,30.62a1.46,1.46,0,0,0,0,.51,38.18,38.18,0,0,1-1.42,3.79c-4.52,10.32-10.11,17.27-17.65,21.88-15.44,9.38-34.51,10.13-52.7,10-4.45,0-9-.09-13.51-.22-2.47,11.59-6.32,24.34-13.17,30.88-11.14,10.61-17.4-13.77-21-33.69a167.56,167.56,0,0,1-19.77-4.26c-15.5-4.42-33.5-12.66-47-24.32.28-.85.53-1.67.79-2.43a329.81,329.81,0,0,0,11.65-44.67q2-10.76,3.34-21.66c.41-3.25.54-7,2.47-9.82,2.55-3.73,7.48-4.3,11.58-4.71a290.48,290.48,0,0,1,52.67.07l.28.47a1.59,1.59,0,0,0,2.72-1.64c-4.8-7.83-10.23-16.67-11-26.37-.73-8.87,3.82-19.41,12.76-21.72,6.53-1.67,14.55,1.45,21.4,8.43a18.24,18.24,0,0,1,3.85,5.21,16,16,0,0,1,1.14,6.13c.25,9.5-5.81,19.26-9.44,24.21a1.58,1.58,0,0,0-.09,1.71,1.55,1.55,0,0,0,1.48.82c5.87-.35,11.59-.82,17.14-1.36a1.14,1.14,0,0,0,.48.16,41.85,41.85,0,0,1,28.07,15.28,1.53,1.53,0,0,0,1.23.6,1.6,1.6,0,0,0,1.23-2.59,45.12,45.12,0,0,0-21.28-14.55,286.74,286.74,0,0,0,59.2-13.33c1.8.95,3.13,2.81,4.55,5,8.9,13.45,17.17,26.71,20.71,41.36A77,77,0,0,1,1490.51,499.64Z"/><path class="cls-4" d="M1494.8,460c-3.66-15.15-12.09-28.7-21.12-42.37-1.45-2.14-3.41-5.11-6.54-6.37a1.49,1.49,0,0,0-1.1,0c-23.81,8.37-50.87,13.49-82.57,15.6,3.76-5.71,8.4-14.59,8.15-23.43a17.19,17.19,0,0,0-5.91-13.48c-3.66-3.72-13.41-12.12-24.43-9.28-10.42,2.71-15.82,14.59-15.13,24.69.22.06.48.09.7.16,1.39.34.88,2.4-.45,2.33,0,.22.07.45.1.64-.1-.23-.16-.45-.25-.67a1.3,1.3,0,0,0,.15,0c-.09-.69-.18-1.42-.25-2.14a1.37,1.37,0,0,1,0-.35,132.72,132.72,0,0,0-39.21-2.46c-3.7.31-7.33.85-11,1.48a1.22,1.22,0,0,0-.85-.13,25.59,25.59,0,0,0-4,1.11c-1,.22-2,.35-3,.6-1.65.41-3.29.88-4.93,1.29a7.21,7.21,0,0,1-1.42.13c-.28-.54-.6-1.07-.88-1.61-1.58-3-3.32-8.21-6.38-9.88s-7.07-.92-6.88,3.28c.09,1.8-.26,10.93,1.73,11.59l-.88-.29c-.82-.5-1.64-1-2.5-1.42-2.81-1.42-7.83-4.35-10.92-2.11-2.34,1.7-1,3.82.72,5.21a19.14,19.14,0,0,0,8.59,6.19c-15.34,8.17-30,19-37.66,35-3.13,6.44-6.73,16.2-4.71,23.43.7,2.4,2.4,4.45,5,4.29-2,6.19-2.33,13.1,0,19.17.73,1.86,2.06,3.88,4.27,4a3.6,3.6,0,0,0,1.45-.19c.09,4.61.16,9.22.25,13.83,0,3.22-.22,6.94,1.42,9.88,3.1,5.52,8.27,2.65,11.65-.92l0,.16a1.09,1.09,0,0,0-.34,1.14c.09.44.22.85.31,1.29a5.86,5.86,0,0,0,.35,1.77c.1,1.3.19,2.62.28,3.92.19,2.27.29,4.76,1.65,6.72,2.4,3.44,7.29,2.94,10.67,1.33,8.24-3.92,12-14.72,14.81-23.71,13.79,11.58,31.7,19.7,47.14,24.12a166.54,166.54,0,0,0,19.6,4.26c3.26,17,7.58,32,14.72,34.45a6.14,6.14,0,0,0,2.11.38c2,0,4.14-1,6.25-3,6.6-6.28,10.49-17.83,13-28.82,4.23.12,8.43.16,12.6.19h2c18,0,36.78-1,52.35-10.52,8.11-4.92,14.14-12.34,18.91-23.3.76-1.8,1.2-3.09,1.52-4,.6-1.77.6-1.77,4.07-2.43l1.26-.25a32.73,32.73,0,0,1,9.54-.26c6.19.48,11.52.89,14.65-9.56A79.07,79.07,0,0,0,1494.8,460ZM1232.58,447.7c0,.07,0,.13,0,.19-1.51,2.59-2.9,5.24-4.2,7.93a1.2,1.2,0,0,0-.31.38c-.29.47-.48.94-.73,1.39A53.27,53.27,0,0,1,1232.58,447.7Zm.13,53.05c-2,.41-3.13-.16-3.54-1.61a3.44,3.44,0,0,0,.76.41,1,1,0,0,0,1.14-.35.91.91,0,0,0,.72.09c0,.07.07.1.1.16a2.16,2.16,0,0,0,1,.63A1.33,1.33,0,0,0,1232.71,500.75ZM1235,488c-.06.73-.13,1.42-.16,2.15a2.65,2.65,0,0,1-.63,2.36,1,1,0,0,0-.31-.75,1.34,1.34,0,0,0-1-.32c.38-1.36.72-2.68,1.07-4a1.21,1.21,0,0,0,1.07-.22Zm-6.76-23.84c-.37.7-.75,1.39-1.1,2.09a.92.92,0,0,0-.22.22,28.92,28.92,0,0,1,1.39-3.45c.12-.22.22-.47.34-.75,0,0,0-.07,0-.1a1.13,1.13,0,0,0,.12-.28.88.88,0,0,0-.16-1l2.34-4.45a1,1,0,0,0,.1-.73c1.29-2.62,2.71-5.18,4.2-7.7a15.79,15.79,0,0,0,2.9-3.7,1.69,1.69,0,0,0,.22.26A73.34,73.34,0,0,0,1228.22,464.12Zm30.6,63c0,.35-.1.67-.13,1a1.15,1.15,0,0,0,.19.67.89.89,0,0,0-.85.31l-.88-.28v-.07a1.07,1.07,0,0,0-.16-.88l.35-4.55c.31,1,.63,2.09.91,3.13A1.15,1.15,0,0,0,1258.82,527.17Zm-.88-93.45c-.35.91-.7,1.83-1.08,2.71-.47.32-.91.63-1.39,1,0-.66,0-1.29,0-2,.76-.57,1.55-1.1,2.34-1.64C1257.84,433.75,1257.9,433.75,1257.94,433.72Zm-2.12-2.44,1.86-.72c-1.77.95-3.5,1.92-5.27,2.87a1.66,1.66,0,0,0-.38-.31l2.91-1.9A.93.93,0,0,0,1255.82,431.28Zm-3,10.93c-.06.25-.13.5-.19.76a14.44,14.44,0,0,0-3.73,6.41v0a6.31,6.31,0,0,0-.66.44l.1-.19c1-2,2-5.37,3.91-6.72A2,2,0,0,1,1252.79,442.21Zm-7.45-7.64c-1.36.88-2.72,1.77-4,2.68a83.62,83.62,0,0,1,11.27-9.15A85,85,0,0,0,1245.34,434.57Zm.85,44.83c1.93-5.52,3.85-11,5.81-16.57-.19.69-.35,1.35-.51,2.05a1.06,1.06,0,0,0,.29,1.07Zm3.82,44.74a6,6,0,0,0-1.7.86c.22-1.08.44-2.12.66-3.19.12-.19.25-.35.38-.54,0,.44,0,.92,0,1.39a1.15,1.15,0,0,0,1.45,1.1l.06.51A1.25,1.25,0,0,0,1250,524.14Zm3.6-39.21c-.32,1.36-.57,2.68-.76,4q-.46,2.7-.79,5.4a1.82,1.82,0,0,0-.57,0c.41-2.06.79-4.14,1.14-6.19.19-1.2.38-2.37.54-3.57.09-.22.16-.44.25-.66.32-.79.63-1.61.92-2.4C1254.05,482.65,1253.8,483.79,1253.61,484.93Zm1.07,28.45c0-1.24-.06-2.43-.12-3.67l1.26-6.18c0,1.07.13,2.14.19,3.25C1255.54,509,1255.06,511.17,1254.68,513.38Zm1.58,25.38c0-.35-.09-.66-.12-1,.34-.31.69-.66,1-1,.66.19,1.29.35,1.92.54h.07A12.18,12.18,0,0,1,1256.26,538.76Zm8.43-38.74-.66,1.55c0,.06-.1.12-.13.19l-.09.28a1.42,1.42,0,0,1-.13.25c0-.41.1-.85.13-1.26a.93.93,0,0,0-.38-.91c.13-.51.28-.95.41-1.43H1265C1264.91,499.14,1264.82,499.58,1264.69,500Zm.73-52.22c-.13-.22-.35-.41-.51-.63l.38-1.65.44-1.86.76-1.14c-.12.67-.25,1.33-.41,2C1265.89,445.62,1265.64,446.69,1265.42,447.8Zm2.9,57.08a.77.77,0,0,0-.41.57,3.32,3.32,0,0,0,.1,1.39,8.33,8.33,0,0,0-.16,1l-.25,1.17-.32,1.48c0,.1-.09.22-.13.32-.25.53-.5,1.07-.72,1.64,0,.06,0,.09-.06.16s0-.13,0-.19c.12-.67.25-1.33.41-2a18.78,18.78,0,0,1,.38-1.9c.25-1.45.56-2.9.85-4.35a1.21,1.21,0,0,0,.35.19C1268.35,504.5,1268.35,504.69,1268.32,504.88Zm-.09-81.58a2.29,2.29,0,0,0-.35.19c-.63.19-1.29.41-1.92.63l1.48-1c1.29-.82.13-2.84-1.17-2.05a1.18,1.18,0,0,0-.44-.92l1.77-.95a1.25,1.25,0,0,0,.5,1.23,10.19,10.19,0,0,0,2.15,1.27A13,13,0,0,0,1268.23,423.3Zm44-9.73,16.8,1.14c.91.19,1.83.41,2.74.66-2.87-.09-5.71-.19-8.58-.31a108.38,108.38,0,0,0-11.69-1A5.57,5.57,0,0,0,1312.21,413.57Zm1.52,9.44c1.86.19,3.72.38,5.58.6,1.39.19,2.78.38,4.14.6,1,.16,2,.35,2.94.54,0,0,0,0,0,0a3.24,3.24,0,0,0,.28.47h-1.64a87.65,87.65,0,0,0-9-.47,1.18,1.18,0,0,0-.54-.44,3.78,3.78,0,0,0-.63-.19c-.41-.16-.82-.25-1.2-.41a1.56,1.56,0,0,0,.1-.22A2.91,2.91,0,0,0,1313.73,423Zm-3,6.41c1,0,2.09-.16,3.07-.28,1.89.22,3.82.38,5.71.5-1.58.07-3.15.1-4.77.19s-3.63.13-5.49.22A4,4,0,0,0,1310.69,429.42Zm-9.44-6.28c.45.06.89.12,1.33.22a5.82,5.82,0,0,1,.82.13c-.44,0-.85-.07-1.29-.07-4.2-.25-8.43-.47-12.66-.63l-.51-.41Q1295.11,422.58,1301.25,423.14Zm-.66,7.92a19.24,19.24,0,0,0-5.27,1.9,1.09,1.09,0,0,0-.85-.1,3.9,3.9,0,0,0-.48.13,11.6,11.6,0,0,1,2.31-1.64C1297.75,431.28,1299.17,431.19,1300.59,431.06Zm-22.73-18.69,2.08,3-.16-.13a1.29,1.29,0,0,0-1.61,0,.11.11,0,0,0,0-.09c-.76-1.86-1.54-3.73-2.33-5.59C1276.5,410.48,1277.13,411.46,1277.86,412.37Zm-1.26,11.49c.94-.18,1.89-.34,2.87-.47l-.44,1.39a14.47,14.47,0,0,0-2.5.69l.16-.75A1.16,1.16,0,0,0,1276.6,423.86Zm-.83,27.51c.76-2.72,1.65-5.44,2.56-8.12a18.07,18.07,0,0,1,.1,3.22c-.92,1.83-1.83,3.7-2.78,5.53C1275.68,451.78,1275.74,451.59,1275.77,451.37Zm0,5.87c0-.07-.07-.13-.07-.19.51-1,1-2,1.55-3.06-.44,1.86-.88,3.72-1.29,5.58-.07.07-.16.1-.23.16a.55.55,0,0,1-.12.19C1275.71,459,1275.77,458.12,1275.81,457.24Zm214.7,42.4c-2.4,8-5.4,7.8-11.37,7.33a36.94,36.94,0,0,0-10.42.31l-1.23.25c-1.1.23-2,.38-2.68.6A37.3,37.3,0,0,0,1457,479a1.58,1.58,0,0,0-2.5,1.93c7,9,9.1,18.75,6.51,30.62a1.46,1.46,0,0,0,0,.51,38.18,38.18,0,0,1-1.42,3.79c-4.52,10.32-10.11,17.27-17.65,21.88-15.44,9.38-34.51,10.13-52.7,10-4,0-7.92-.06-11.9-.19,1-5,1.83-9.72,2.49-13.67l.1-.7a1.57,1.57,0,1,0-3.1-.53l-.12.69c-.67,4.08-1.49,9-2.59,14.15-.22,1-.45,2.08-.7,3.12-2.4,10.39-6.06,21-12,26.65-2.88,2.72-4.61,2.15-5.18,2-5.72-1.93-9.73-17.08-12.41-31-.19-1.1-.41-2.17-.6-3.25-.89-4.89-1.61-9.5-2.18-13.13-.69-4.42-1.2-7.58-1.64-9.19a1.58,1.58,0,0,0-1.93-1.14,1.63,1.63,0,0,0-1.1,2c.38,1.42.88,4.7,1.54,8.84s1.3,8.11,2,12.12a155.39,155.39,0,0,1-18.12-4c-15.5-4.42-33.5-12.66-47-24.32.28-.85.53-1.67.79-2.43a329.81,329.81,0,0,0,11.65-44.67q2-10.76,3.34-21.66c.41-3.25.54-7,2.47-9.82,2.55-3.73,7.48-4.3,11.58-4.71a269.06,269.06,0,0,1,29.09-1.14q7.29.11,14.56.54c2.42.15,4.83.32,7.25.52.69.05,6.21,1.34,4.77-1-4.8-7.83-10.23-16.67-11-26.37-.73-8.87,3.82-19.41,12.76-21.72,6.53-1.67,14.55,1.45,21.4,8.43a18.24,18.24,0,0,1,3.85,5.21,16,16,0,0,1,1.14,6.13c.25,9.5-5.81,19.26-9.44,24.21a1.58,1.58,0,0,0-.09,1.71,1.55,1.55,0,0,0,1.48.82c5.87-.35,11.59-.82,17.14-1.36a1.14,1.14,0,0,0,.48.16,41.85,41.85,0,0,1,28.07,15.28,1.53,1.53,0,0,0,1.23.6,1.6,1.6,0,0,0,1.23-2.59,45.12,45.12,0,0,0-21.28-14.55,286.74,286.74,0,0,0,59.2-13.33c1.8.95,3.13,2.81,4.55,5,8.9,13.45,17.17,26.71,20.71,41.36A77,77,0,0,1,1490.51,499.64Z"/><path class="cls-2" d="M1254.34,481.52c-.29,1.13-.54,2.27-.73,3.41a4.75,4.75,0,0,1-.19-1C1253.74,483.13,1254.05,482.31,1254.34,481.52Z"/><path class="cls-2" d="M1265,498.69c-.1.45-.19.89-.32,1.33l-.66,1.55c0,.06-.1.12-.13.19l-.09.28a1.42,1.42,0,0,1-.13.25c0-.41.1-.85.13-1.26a.93.93,0,0,0-.38-.91c.13-.51.28-.95.41-1.43Z"/><path class="cls-2" d="M1266.49,442.52c-.12.67-.25,1.33-.41,2-.19,1.11-.44,2.18-.66,3.29-.13-.22-.35-.41-.51-.63l.38-1.65.44-1.86Z"/><path class="cls-2" d="M1277.29,454c-.44,1.86-.88,3.72-1.29,5.58-.07.07-.16.1-.23.16a.55.55,0,0,1-.12.19c.06-.88.12-1.8.16-2.68,0-.07-.07-.13-.07-.19C1276.25,456,1276.78,455,1277.29,454Z"/><path class="cls-2" d="M1278.43,446.47c-.92,1.83-1.83,3.7-2.78,5.53,0-.22.09-.41.12-.63.76-2.72,1.65-5.44,2.56-8.12A18.07,18.07,0,0,1,1278.43,446.47Z"/><path class="cls-2" d="M1300.59,431.06a19.24,19.24,0,0,0-5.27,1.9,1.09,1.09,0,0,0-.85-.1,3.9,3.9,0,0,0-.48.13,11.6,11.6,0,0,1,2.31-1.64C1297.75,431.28,1299.17,431.19,1300.59,431.06Z"/><path class="cls-2" d="M1319.47,429.64c-1.58.07-3.15.1-4.77.19s-3.63.13-5.49.22a4,4,0,0,0,1.48-.63c1,0,2.09-.16,3.07-.28C1315.65,429.36,1317.58,429.52,1319.47,429.64Z"/><path class="cls-2" d="M1326.7,425.25h-1.64a87.65,87.65,0,0,0-9-.47,1.18,1.18,0,0,0-.54-.44,3.78,3.78,0,0,0-.63-.19c2.88-.06,5.75,0,8.59.06,1,.16,2,.35,2.94.54,0,0,0,0,0,0A3.24,3.24,0,0,0,1326.7,425.25Z"/><path class="cls-2" d="M1268.39,504.35c0,.15,0,.34-.07.53a.77.77,0,0,0-.41.57,3.32,3.32,0,0,0,.1,1.39,8.33,8.33,0,0,0-.16,1l-.25,1.17-.32,1.48c0,.1-.09.22-.13.32a1.43,1.43,0,0,1-.34-.38,18.78,18.78,0,0,1,.38-1.9c.25-1.45.56-2.9.85-4.35A1.21,1.21,0,0,0,1268.39,504.35Z"/><path class="cls-4" d="M1266.49,442.52c-.12.67-.25,1.33-.41,2-.28.32-.54.67-.79,1l.44-1.86Z"/><path class="cls-4" d="M1303.4,423.49c-.44,0-.85-.07-1.29-.07a1.24,1.24,0,0,1,.47-.06A5.82,5.82,0,0,1,1303.4,423.49Z"/><path class="cls-4" d="M1326.7,425.25h-1.64a87.65,87.65,0,0,0-9-.47,1.18,1.18,0,0,0-.54-.44,3.78,3.78,0,0,0-.63-.19c-.41-.16-.82-.25-1.2-.41a1.56,1.56,0,0,0,.1-.22,2.91,2.91,0,0,0,0-.51c1.86.19,3.72.38,5.58.6,1.39.19,2.78.38,4.14.6,1,.16,2,.35,2.94.54,0,0,0,0,0,0A3.24,3.24,0,0,0,1326.7,425.25Z"/><path class="cls-4" d="M1254.34,481.52c-.29,1.13-.54,2.27-.73,3.41-.32,1.36-.57,2.68-.76,4a4.16,4.16,0,0,1-.22-.82c.19-1.2.38-2.37.54-3.57.09-.22.16-.44.25-.66C1253.74,483.13,1254.05,482.31,1254.34,481.52Z"/><path class="cls-4" d="M1267.6,509l-.32,1.48c0,.1-.09.22-.13.32-.25.53-.5,1.07-.72,1.64a0,0,0,0,0,0,0c.12-.67.25-1.33.41-2a18.78,18.78,0,0,1,.38-1.9A4.37,4.37,0,0,0,1267.6,509Z"/><path class="cls-4" d="M1346.4,407.79c-.09-.69-.18-1.42-.25-2.14a1.37,1.37,0,0,1,0-.35c.22.06.48.09.7.16C1348.24,405.8,1347.73,407.86,1346.4,407.79Z"/><path class="cls-3" d="M1390.89,498.94a40.54,40.54,0,0,0,15.47,20.57"/><path class="cls-3" d="M1320.34,502.18a22.13,22.13,0,0,1,.27-14.57,43.81,43.81,0,0,1,6-10"/><path class="cls-3" d="M1304.11,485.28a15,15,0,0,1,6.69-13.91"/><path class="cls-3" d="M1303.76,534a15.2,15.2,0,0,1,5.16-16.91"/><ellipse class="cls-4" cx="1325.75" cy="498.99" rx="6.31" ry="4.74"/><ellipse class="cls-4" cx="1309.96" cy="533.72" rx="6.31" ry="4.74"/><path class="cls-3" d="M1288.09,527.69c-1-2.87-1.6-6.08-.59-9s4-5.24,7-4.74"/><path class="cls-3" d="M1364.6,388.63c-5.33,4.61-6.8,12.41-6,19.42a19.75,19.75,0,0,0,.77,3.88,12.62,12.62,0,0,0,6.49,7.35,21.48,21.48,0,0,1,3.46-15.19,7.17,7.17,0,0,1,1.2-1.43,4.69,4.69,0,0,1,6.49.55c2.14,2.64.75,6.56,1.31,9.92"/></svg>
