<svg width="51" height="44" viewBox="0 0 51 44" fill="none" xmlns="http://www.w3.org/2000/svg">
<path d="M37.6615 25.4302C34.2464 21.3069 29.9299 19.0361 25.5066 19.0361C21.0833 19.0361 16.7666 21.3069 13.3518 25.4302C10.2821 29.1364 8.44971 33.8073 8.44971 37.9249C8.44971 39.925 9.06118 41.4486 10.2671 42.4533C11.4573 43.4451 13.0287 43.7805 14.7818 43.7804C16.6473 43.7804 18.7186 43.4006 20.7538 43.0272C22.5322 42.701 24.212 42.3928 25.5067 42.3928C26.6242 42.3928 28.1997 42.6853 29.8675 42.9949C33.7652 43.7186 38.1831 44.5386 40.7352 42.4167C41.9484 41.408 42.5636 39.8967 42.5636 37.9249C42.5637 33.8073 40.7311 29.1364 37.6615 25.4302ZM38.8338 40.1299C37.3544 41.36 33.504 40.6452 30.4102 40.0709C28.6038 39.7355 26.8977 39.4187 25.5065 39.4187C23.9412 39.4187 22.1323 39.7507 20.217 40.102C17.2497 40.6463 13.5569 41.3238 12.1706 40.1685C11.9858 40.0146 11.4235 39.546 11.4235 37.9248C11.4235 34.5297 13.04 30.4689 15.642 27.3272C18.4818 23.8985 21.9851 22.0101 25.5064 22.0101C29.0277 22.0101 32.531 23.8985 35.3708 27.3272C37.9729 30.4689 39.5893 34.5297 39.5893 37.9248C39.5896 39.5015 39.0208 39.9745 38.8338 40.1299Z" fill="#39A4F2"/>
<path d="M38.0105 3.04074C36.7609 1.19849 34.9717 0.14209 33.1015 0.14209C31.2312 0.14209 29.4421 1.19868 28.1926 3.04074C27.0448 4.73309 26.4126 6.95553 26.4126 9.29871C26.4126 11.6419 27.0447 13.8643 28.1926 15.5567C29.4421 17.3988 31.2313 18.4554 33.1015 18.4554C34.9718 18.4554 36.7609 17.3988 38.0105 15.5567C39.1583 13.8643 39.7904 11.6419 39.7904 9.29871C39.7904 6.95553 39.1583 4.73299 38.0105 3.04074ZM35.5492 13.8873C35.1454 14.4826 34.2905 15.4814 33.1015 15.4814C31.9126 15.4814 31.0577 14.4827 30.6538 13.8873C29.8485 12.6999 29.3866 11.0274 29.3866 9.29871C29.3866 7.56997 29.8486 5.89754 30.6538 4.71009C31.0576 4.11478 31.9126 3.11598 33.1015 3.11598C34.2905 3.11598 35.1454 4.11468 35.5492 4.71009C36.3546 5.89754 36.8165 7.57007 36.8165 9.29871C36.8164 11.0274 36.3546 12.6999 35.5492 13.8873Z" fill="#39A4F2"/>
<path d="M22.821 3.04083C21.5715 1.19858 19.7824 0.14209 17.9121 0.14209C16.0418 0.14209 14.2526 1.19868 13.0031 3.04083C11.8553 4.73319 11.2231 6.95563 11.2231 9.29881C11.2231 11.642 11.8552 13.8644 13.0031 15.5568C14.2526 17.399 16.0418 18.4556 17.9121 18.4556C19.7824 18.4556 21.5715 17.399 22.821 15.5568C23.9688 13.8644 24.601 11.6421 24.601 9.29881C24.6009 6.95563 23.9688 4.73309 22.821 3.04083ZM20.3595 13.8875C19.9558 14.4828 19.1008 15.4816 17.912 15.4816C16.723 15.4816 15.8681 14.4828 15.4643 13.8875C14.6589 12.7001 14.197 11.0275 14.197 9.29891C14.197 7.57017 14.659 5.89774 15.4643 4.71029C15.8681 4.11498 16.723 3.11618 17.912 3.11618C19.1009 3.11618 19.9558 4.11488 20.3595 4.71029C21.1649 5.89774 21.6268 7.57027 21.6268 9.29891C21.6268 11.0275 21.1649 12.7001 20.3595 13.8875Z" fill="#39A4F2"/>
<path d="M50.5895 17.416C50.0858 15.7025 49.0061 14.4575 47.5495 13.9104C46.3773 13.4701 45.0541 13.5447 43.8237 14.1206C42.1279 14.9141 40.7419 16.5526 40.0212 18.616C39.4322 20.3021 39.3588 22.0842 39.8145 23.6344C40.3182 25.3479 41.3979 26.593 42.8546 27.1401C43.3587 27.3294 43.8906 27.4235 44.4311 27.4235C45.1475 27.4235 45.8792 27.2581 46.5805 26.9298C48.2763 26.1363 49.6623 24.4978 50.383 22.4346V22.4345C50.9719 20.7485 51.0453 18.9662 50.5895 17.416ZM47.5753 21.4537C47.1236 22.7466 46.2805 23.7867 45.3199 24.2362C44.9667 24.4014 44.4338 24.5563 43.9003 24.3559C42.6127 23.8723 42.1119 21.6482 42.8286 19.5967C43.2803 18.3039 44.1235 17.2637 45.0841 16.8142C45.3182 16.7046 45.6313 16.5996 45.9712 16.5996C46.144 16.5996 46.3239 16.6268 46.5036 16.6943C47.7912 17.1781 48.292 19.4021 47.5753 21.4537Z" fill="#39A4F2"/>
<path d="M10.9919 18.6158C10.2711 16.5525 8.88506 14.9141 7.18943 14.1206C5.95885 13.5447 4.63558 13.4702 3.46349 13.9103C2.00679 14.4575 0.927093 15.7026 0.423381 17.416C-0.0323481 18.9662 0.0411118 20.7484 0.63008 22.4344V22.4345C1.351 24.4979 2.73692 26.1363 4.43255 26.9298C5.13404 27.258 5.86557 27.4235 6.58202 27.4235C7.12251 27.4235 7.65448 27.3293 8.15849 27.1401C9.6154 26.5928 10.695 25.3478 11.1987 23.6344C11.6542 22.0843 11.5808 20.302 10.9919 18.6158ZM7.1126 24.356C6.57915 24.5564 6.04619 24.4014 5.69307 24.2362C4.73254 23.7868 3.88928 22.7466 3.43772 21.4538V21.4539C2.72106 19.4023 3.2218 17.1783 4.50938 16.6946C5.04273 16.4942 5.57579 16.6492 5.92901 16.8143C6.88964 17.2639 7.7328 18.304 8.18436 19.5968C8.90102 21.6484 8.40018 23.8723 7.1126 24.356Z" fill="#39A4F2"/>
</svg>
