<svg width="32" height="32" viewBox="0 0 32 32" fill="none" xmlns="http://www.w3.org/2000/svg">
<circle cx="16" cy="16" r="15.5" stroke="black"/>
<path d="M13.351 23.9998C10.9698 23.9861 9 19.1251 9 16.6495C9 12.6057 12.0336 11.7203 13.2027 11.7203C13.7296 11.7203 14.2922 11.9273 14.7884 12.1103C15.1354 12.2381 15.4943 12.3699 15.6939 12.3699C15.8133 12.3699 16.0949 12.2578 16.3434 12.1593C16.8735 11.9483 17.5332 11.686 18.3013 11.686C18.3027 11.686 18.3045 11.686 18.3058 11.686C18.8794 11.686 20.6185 11.8119 21.664 13.382L21.9089 13.7501L21.5564 14.016C21.0529 14.396 20.1342 15.089 20.1342 16.4619C20.1342 18.0878 21.1747 18.7132 21.6745 19.0139C21.8952 19.1467 22.1236 19.2835 22.1236 19.5829C22.1236 19.7784 20.5635 23.9756 18.2981 23.9756C17.7437 23.9756 17.3519 23.809 17.0062 23.662C16.6565 23.5133 16.3548 23.3851 15.8563 23.3851C15.6037 23.3851 15.2841 23.5046 14.9458 23.6314C14.4836 23.8039 13.9603 23.9998 13.3666 23.9998H13.351Z" fill="black"/>
<path d="M18.5415 8C18.6005 10.1274 17.0791 11.6033 15.5595 11.5107C15.3091 9.81297 17.0789 8 18.5415 8Z" fill="black"/>
</svg>
