<svg width="32" height="42" viewBox="0 0 32 42" fill="none" xmlns="http://www.w3.org/2000/svg">
<path d="M10.3241 42C9.40641 42 8.67225 41.2505 8.67225 40.3481C8.67225 39.4457 9.37582 38.7269 10.2629 38.6963L11.2418 38.6657L10.5688 37.9468C8.5346 35.8514 6.72979 33.6489 5.21559 31.37C1.75892 26.1544 0 20.8776 0 15.6621C0 7.02039 7.02039 0 15.6468 0C24.2731 0 31.2935 7.02039 31.2935 15.6621C31.2935 20.847 29.5346 26.1391 26.0779 31.37C24.579 33.6336 22.7742 35.8514 20.7247 37.9468L20.0364 38.6504L21.0153 38.681C21.9024 38.7116 22.6213 39.4457 22.6213 40.3328C22.6213 41.2505 21.8871 41.9847 20.9694 41.9847H10.3241V42ZM15.6468 3.30371C8.8405 3.30371 3.30371 8.84049 3.30371 15.6621C3.30371 26.3074 12.5266 35.4079 15.3562 37.9315L15.6468 38.1916L15.9374 37.9315C18.7669 35.3926 27.9898 26.3074 27.9898 15.6621C27.9898 8.84049 22.453 3.30371 15.6468 3.30371Z" fill="#39A4F2"/>
<path d="M15.6454 25.9095C10.0016 25.9095 5.41309 21.321 5.41309 15.6772C5.41309 10.0333 10.0016 5.44482 15.6454 5.44482C21.2893 5.44482 25.8778 10.0333 25.8778 15.6772C25.8778 18.415 24.8071 20.9845 22.8799 22.9117C20.9375 24.8389 18.3832 25.9095 15.6454 25.9095ZM15.6454 8.21321C11.5464 8.21321 8.21207 11.5475 8.21207 15.6466C8.21207 19.7456 11.5464 23.0799 15.6454 23.0799C19.7445 23.0799 23.0788 19.7456 23.0788 15.6466C23.0788 11.5628 19.7445 8.21321 15.6454 8.21321Z" fill="#39A4F2"/>
<path d="M20.0663 12.2969C19.8216 12.0522 19.4851 11.9146 19.1333 11.9146C18.7816 11.9146 18.4604 12.0522 18.2003 12.2969L14.2848 16.2277L13.2142 15.1571C12.9695 14.9124 12.633 14.7594 12.2812 14.7594C11.9294 14.7594 11.6082 14.8971 11.3482 15.1571C11.1035 15.4018 10.9658 15.7383 10.9658 16.0901C10.9658 16.4419 11.1035 16.7631 11.3482 17.0078L13.3518 19.0726C13.6271 19.302 13.9483 19.4244 14.2695 19.4244C14.346 19.4244 14.4072 19.4091 14.5143 19.3785C14.759 19.3326 14.9884 19.195 15.1872 19.0114L20.0663 14.1323C20.6017 13.6429 20.6017 12.817 20.0663 12.2969Z" fill="#39A4F2"/>
</svg>
