<svg width="43" height="44" viewBox="0 0 43 44" fill="none" xmlns="http://www.w3.org/2000/svg">
<path d="M42.4001 18.1L36.7001 13V4.9C36.7001 4.1 36.0001 3.4 35.2001 3.4H30.2001C29.4001 3.4 28.7001 4.1 28.7001 4.9V5.8L22.6001 0.4C22.3001 0.2 22.0001 0 21.6001 0C21.2001 0 20.9001 0.1 20.6001 0.4L0.600098 18.1C0.300098 18.4 0.100098 18.7 0.100098 19.2C0.100098 19.6 0.200098 20 0.500098 20.3C0.800098 20.6 1.2001 20.8 1.7001 20.8C2.1001 20.8 2.4001 20.7 2.7001 20.4L4.9001 18.4V40.4H3.9001C3.1001 40.4 2.4001 41.1 2.4001 41.9C2.4001 42.7 3.1001 43.4 3.9001 43.4H39.1001C39.9001 43.4 40.6001 42.7 40.6001 41.9C40.6001 41.1 39.9001 40.4 39.1001 40.4H38.2001V18.4L40.4001 20.4C40.7001 20.6 41.0001 20.8 41.4001 20.8C41.8001 20.8 42.3001 20.6 42.6001 20.3C43.1001 19.6 43.1001 18.6 42.4001 18.1ZM33.6001 6.4V10.2L31.7001 8.5V6.4H33.6001ZM7.9001 40.4V15.7L21.5001 3.7L35.1001 15.7C35.1001 16.4 35.1001 20.2 35.1001 40.4H7.9001Z" fill="#39A4F2"/>
<path d="M25.7001 18C24.1001 18 22.7001 18.6 21.5001 19.6C20.4001 18.6 18.9001 18 17.3001 18C13.9001 18 11.1001 20.8 11.1001 24.2C11.1001 27.3 13.6001 30.5 15.1001 32.1C16.9001 34.1 19.6001 36.2 21.4001 36.2C23.3001 36.2 26.0001 34.1 27.7001 32.3C29.2001 30.7 31.7001 27.6 31.7001 24.2C31.9001 20.8 29.1001 18 25.7001 18ZM21.5001 33.1C21.2001 33.1 19.3001 32.1 17.4001 29.9C15.4001 27.8 14.2001 25.6 14.2001 24.1C14.2001 22.4 15.6001 21 17.3001 21C18.5001 21 19.6001 21.7 20.1001 22.7C20.4001 23.2 20.9001 23.6 21.5001 23.6C22.1001 23.6 22.6001 23.3 22.9001 22.7C23.4001 21.6 24.5001 21 25.7001 21C27.4001 21 28.8001 22.4 28.8001 24.1C28.8001 25.8 27.6001 28 25.6001 30.1C23.7001 32.2 21.9001 33.1 21.5001 33.1Z" fill="#39A4F2"/>
</svg>
