<svg width="32" height="42" viewBox="0 0 32 42" fill="none" xmlns="http://www.w3.org/2000/svg">
<path d="M10.3315 42C9.43177 42 8.68203 41.2655 8.68203 40.3512C8.68203 39.4368 9.41678 38.7024 10.3315 38.7024H11.3211C9.55173 36.9786 7.27251 34.4604 5.21821 31.3726C1.7544 26.1563 0 20.8801 0 15.6638C0 7.02998 7.0176 0 15.6396 0C24.2617 0 31.2943 7.02998 31.2943 15.6638C31.2943 20.8501 29.5399 26.1413 26.0761 31.3726C24.0368 34.4604 21.7426 36.9636 19.9732 38.7024H20.9778C21.8775 38.7024 22.6273 39.4368 22.6273 40.3512C22.6273 41.2505 21.8925 42 20.9778 42H10.3315ZM15.6546 3.28266C8.84697 3.28266 3.29887 8.82869 3.29887 15.6488C3.29887 26.636 13.0455 35.9143 15.6546 38.2077C18.2787 35.9143 28.0104 26.651 28.0104 15.6488C28.0104 8.82869 22.4623 3.28266 15.6546 3.28266Z" fill="#39A4F2"/>
<path d="M17.6195 16.368C17.2296 15.6635 16.7498 14.8091 15.6552 14.8091C14.5606 14.8091 14.0807 15.6635 13.6909 16.353C13.5859 16.5778 13.4509 16.7877 13.301 16.9825C12.8212 17.5521 12.6862 18.3316 12.9561 19.0211V19.0361C13.181 19.5157 13.6459 19.8155 14.1707 19.8155C14.2007 19.8155 14.2307 19.8155 14.2457 19.8155C14.5606 19.8005 14.8605 19.7406 15.1454 19.6057C15.3103 19.5307 15.4752 19.4857 15.6552 19.4857C15.8351 19.5007 16.0151 19.5457 16.165 19.6057C16.4349 19.7406 16.7348 19.8155 17.0497 19.8155C17.0797 19.8155 17.1097 19.8155 17.1247 19.8155C17.6345 19.8155 18.1143 19.5157 18.3393 19.0361V19.0211C18.5942 18.3316 18.4742 17.5371 17.9944 16.9825C17.8594 16.8027 17.7395 16.5778 17.6195 16.368Z" fill="#39A4F2"/>
<path d="M14.0803 14.8092C14.1553 14.8092 14.2303 14.8092 14.3052 14.7943C15.115 14.6593 15.6548 13.715 15.4748 12.7257C15.3249 11.8264 14.6501 11.1519 13.9004 11.1519C13.8254 11.1519 13.7504 11.1519 13.6754 11.1668C13.2406 11.2418 12.8657 11.5416 12.6858 11.9463C12.4909 12.336 12.4309 12.8007 12.5058 13.2354C12.6558 14.1197 13.3456 14.8092 14.0803 14.8092Z" fill="#39A4F2"/>
<path d="M17.0343 14.7793C17.1093 14.7943 17.1693 14.7943 17.2593 14.7943C18.009 14.7943 18.6838 14.1197 18.8337 13.2354C18.9087 12.8007 18.8637 12.351 18.6538 11.9463C18.4588 11.5566 18.099 11.2568 17.6641 11.1668C17.5891 11.1519 17.5142 11.1519 17.4392 11.1519C16.6895 11.1519 16.0147 11.8264 15.8647 12.7257C15.7898 13.1604 15.8497 13.6251 16.0447 14.0148C16.2096 14.4045 16.5995 14.6893 17.0343 14.7793Z" fill="#39A4F2"/>
<path d="M13.4362 15.2892C13.2713 14.6446 12.7015 14.21 12.0417 14.21C11.9367 14.21 11.8168 14.2249 11.7118 14.2549H11.6968H11.6818C10.962 14.5397 10.5872 15.3491 10.8721 16.0836C10.977 16.4434 11.217 16.7432 11.5319 16.953C11.7568 17.0879 11.9967 17.1778 12.2366 17.1778C12.3566 17.1778 12.4765 17.1629 12.5965 17.1179H12.6115C13.3462 16.8331 13.7061 16.0087 13.4362 15.2892Z" fill="#39A4F2"/>
<path d="M19.5979 14.2553L19.5679 14.2403C19.463 14.2103 19.343 14.1953 19.238 14.1953C18.5783 14.1953 18.0085 14.645 17.8435 15.2745C17.5736 15.994 17.9335 16.8184 18.6532 17.1032H18.6682C18.7882 17.1482 18.9082 17.1632 19.0281 17.1632C19.283 17.1632 19.5379 17.0882 19.7329 16.9384C20.0478 16.7285 20.2727 16.4287 20.3926 16.069C20.6925 15.3645 20.3177 14.5251 19.5979 14.2553Z" fill="#39A4F2"/>
<path d="M15.3997 26.0513C9.86662 26.0513 5.36816 21.5545 5.36816 16.0234C5.36816 10.4924 9.86662 5.99561 15.3997 5.99561C20.9328 5.99561 25.4313 10.4924 25.4313 16.0234C25.4313 18.7065 24.3817 21.2247 22.4923 23.1134C20.588 25.002 18.0688 26.0513 15.3997 26.0513ZM15.3997 8.70867C11.3811 8.70867 8.11223 11.9763 8.11223 15.9935C8.11223 20.0106 11.3811 23.2783 15.3997 23.2783C19.4184 23.2783 22.6872 20.0106 22.6872 15.9935C22.6872 11.9763 19.4184 8.70867 15.3997 8.70867Z" fill="#39A4F2"/>
</svg>
