<svg width="32" height="32" viewBox="0 0 32 32" fill="none" xmlns="http://www.w3.org/2000/svg">
<circle cx="16" cy="16" r="15.5" stroke="black"/>
<path d="M11.1313 8.20391C10.7191 7.95578 10.2278 7.93359 9.79938 8.14016L16.9829 15.339L19.3317 12.9793L11.1313 8.20391ZM9.13938 8.80641C9.04875 8.99829 9 9.21173 9 9.43142V22.5997C9 22.8203 9.04906 23.0306 9.14063 23.2184L16.3213 16.0037L9.13938 8.80641ZM16.9839 16.6674L9.81191 23.8734C10.0022 23.9616 10.2047 24 10.4069 24C10.6566 24 10.9057 23.9403 11.1313 23.8047L19.3333 19.0221L16.9839 16.6674ZM22.4549 14.798C22.452 14.7962 22.4489 14.7943 22.4461 14.7927L20.1692 13.4668L17.6451 16.0027L20.1708 18.5337C20.1708 18.5337 22.452 17.2037 22.4549 17.2021C22.8783 16.9449 23.1311 16.4956 23.1311 15.9999C23.1311 15.5043 22.8783 15.0549 22.4549 14.798Z" fill="black"/>
</svg>
